<svg xmlns="http://www.w3.org/2000/svg" xmlns:xlink="http://www.w3.org/1999/xlink" xmlns:lucid="lucid" width="1030" height="700"><g transform="translate(-330.00000000000006 -100)" lucid:page-tab-id="0_0"><path d="M0 0h1870.87v1322.83H0z" fill="#fff"/><path d="M495.76 124.24c2.34-2.34 6.14-2.34 8.48 0l91.52 91.52c2.34 2.34 2.34 6.14 0 8.48l-91.52 91.52c-2.34 2.34-6.14 2.34-8.48 0l-91.52-91.52c-2.34-2.34-2.34-6.14 0-8.48z" stroke="#5e5e5e" stroke-width="3" fill="#c7e8ac"/><use xlink:href="#a" transform="matrix(1,0,0,1,405,125) translate(32.768671875 99.990234375)"/><use xlink:href="#b" transform="matrix(1,0,0,1,405,125) translate(46.401484375 99.990234375)"/><use xlink:href="#c" transform="matrix(1,0,0,1,405,125) translate(104.878046875 99.990234375)"/><use xlink:href="#d" transform="matrix(1,0,0,1,405,125) translate(139.6925 99.990234375)"/><path d="M500.5 409.63h-1V371.3h1zm0-53.9h-1V319.5h1zM500.33 319.03l.17-.04v.5h-1v-.58zM500 424.4l-4.64-14.27h9.28z" fill="#5e5e5e"/><path d="M500 426l-5.32-16.37h10.64zm-3.95-15.37l3.95 12.15 3.95-12.15z" fill="#5e5e5e"/><use xlink:href="#e" transform="matrix(1,0,0,1,411.3189019097222,355.7364472208771) translate(0 12.441406250000002)"/><use xlink:href="#f" transform="matrix(1,0,0,1,411.3189019097222,355.7364472208771) translate(140.02278645833337 12.441406250000002)"/><path d="M640.48 221h-40.5v-2h40.5zm142.34 0h-49v-2h49z" fill="#5e5e5e"/><path d="M600 221h-1.15l.18-1.33-.15-.67H600zM798.1 220l-14.28 4.64v-9.28z" fill="#5e5e5e"/><path d="M801.33 220l-18.5 6v-12zm-16.5 3.26l10.02-3.26-10.03-3.26z" fill="#5e5e5e"/><use xlink:href="#g" transform="matrix(1,0,0,1,640.4752497649628,212.22222222222223) translate(0 12.441406250000002)"/><use xlink:href="#h" transform="matrix(1,0,0,1,640.4752497649628,212.22222222222223) translate(56.00911458333334 12.441406250000002)"/><path d="M885.26 153.68c2.62-2.03 6.86-2.03 9.48 0l80.52 62.64c2.62 2.03 2.62 5.33 0 7.36l-80.52 62.64c-2.62 2.03-6.86 2.03-9.48 0l-80.52-62.64c-2.62-2.03-2.62-5.33 0-7.36z" stroke="#5e5e5e" stroke-width="3" fill="#ffeca9"/><use xlink:href="#i" transform="matrix(1,0,0,1,805,155) translate(55.9083203125 69.677734375)"/><path d="M1022 221h-42.33v-2H1022zm98 0h-42v-2h42z" fill="#5e5e5e"/><path d="M979.7 221h-1.13l.2-.53-.28-1.47h1.2zM1135.26 220l-14.26 4.64v-9.28z" fill="#5e5e5e"/><path d="M1138.5 220l-18.5 6v-12zm-16.5 3.26l10.03-3.26-10.03-3.26z" fill="#5e5e5e"/><use xlink:href="#j" transform="matrix(1,0,0,1,1021.9925375466406,212.22222222222223) translate(0 12.441406250000002)"/><path d="M891 410h-2v-43.33h2zm0-58.9h-2V290.3h2zM890.94 289.3l.06 1h-2v-1.05zM890 425.26L885.36 411h9.28z" fill="#5e5e5e"/><path d="M890 428.5l-6-18.5h12zm-3.26-16.5l3.26 10.03 3.26-10.03z" fill="#5e5e5e"/><use xlink:href="#k" transform="matrix(1,0,0,1,824.6560329861111,351.1120468210066) translate(0 12.441406250000002)"/><path d="M1300 167.5c22.1 0 40 23.5 40 52.5s-17.9 52.5-40 52.5h-120c-22.1 0-40-23.5-40-52.5s17.9-52.5 40-52.5z" stroke="#5e5e5e" stroke-width="3" fill="#ffbbb1"/><use xlink:href="#l" transform="matrix(1,0,0,1,1145,172.5) translate(36.27756944444445 35.77256944444444)"/><use xlink:href="#m" transform="matrix(1,0,0,1,1145,172.5) translate(62.21506944444445 35.77256944444444)"/><use xlink:href="#n" transform="matrix(1,0,0,1,1145,172.5) translate(83.57791666666668 35.77256944444444)"/><use xlink:href="#o" transform="matrix(1,0,0,1,1145,172.5) translate(95 53.50694444444444)"/><use xlink:href="#p" transform="matrix(1,0,0,1,1145,172.5) translate(41.662986111111124 71.28472222222221)"/><path d="M980 430c33.14 0 60 24.62 60 55s-26.86 55-60 55H800c-33.14 0-60-24.62-60-55s26.86-55 60-55z" stroke="#5e5e5e" stroke-width="3" fill="#ffbbb1"/><use xlink:href="#l" transform="matrix(1,0,0,1,745,435) translate(85.77756944444447 36.86631944444444)"/><use xlink:href="#m" transform="matrix(1,0,0,1,745,435) translate(111.71506944444445 36.86631944444444)"/><use xlink:href="#q" transform="matrix(1,0,0,1,745,435) translate(133.07791666666668 36.86631944444444)"/><use xlink:href="#r" transform="matrix(1,0,0,1,745,435) translate(145 54.60069444444444)"/><use xlink:href="#s" transform="matrix(1,0,0,1,745,435) translate(27.652569444444502 72.37847222222221)"/><path d="M590 680c33.14 0 60 22.4 60 50s-26.86 50-60 50H410c-33.14 0-60-22.4-60-50s26.86-50 60-50z" stroke="#5e5e5e" stroke-width="3" fill="#ffbbb1"/><g><use xlink:href="#l" transform="matrix(1,0,0,1,355.00000000000006,685) translate(85.77756944444447 31.866319444444443)"/><use xlink:href="#m" transform="matrix(1,0,0,1,355.00000000000006,685) translate(111.71506944444445 31.866319444444443)"/><use xlink:href="#t" transform="matrix(1,0,0,1,355.00000000000006,685) translate(133.07791666666668 31.866319444444443)"/><use xlink:href="#u" transform="matrix(1,0,0,1,355.00000000000006,685) translate(145 49.60069444444444)"/><use xlink:href="#v" transform="matrix(1,0,0,1,355.00000000000006,685) translate(43.65517361111116 67.37847222222221)"/></g><path d="M495.76 429.24c2.34-2.34 6.14-2.34 8.48 0l51.52 51.52c2.34 2.34 2.34 6.14 0 8.48l-51.52 51.52c-2.34 2.34-6.14 2.34-8.48 0l-51.52-51.52c-2.34-2.34-2.34-6.14 0-8.48z" stroke="#5e5e5e" stroke-width="3" fill="#fff"/><g><use xlink:href="#w" transform="matrix(1,0,0,1,445,430) translate(36.206171875 63.42664930555556)"/></g><path d="M560 485h160" stroke="#5e5e5e" stroke-width="2" fill="none"/><path d="M560 486h-1.15l.18-1.33-.15-.67H560z" fill="#5e5e5e"/><path d="M735.26 485L721 489.64v-9.28z" stroke="#5e5e5e" stroke-width="2" fill="#5e5e5e"/><g><use xlink:href="#x" transform="matrix(1,0,0,1,584.0536805758155,489.00000000000006) translate(0.005000000000002558 12.441406250000002)"/><use xlink:href="#y" transform="matrix(1,0,0,1,584.0536805758155,489.00000000000006) translate(0.005000000000002558 27.996961805555557)"/><use xlink:href="#z" transform="matrix(1,0,0,1,584.0536805758155,489.00000000000006) translate(14.007278645833338 43.552517361111114)"/></g><path d="M501 660h-2v-33.2h2zm0-64.3h-2V545h2zM500.33 544.03l.67-.15V545h-2v-1.15zM500 675.26L495.36 661h9.28z" fill="#5e5e5e"/><path d="M500 678.5l-6-18.5h12zm-3.26-16.5l3.26 10.03 3.26-10.03z" fill="#5e5e5e"/><g><use xlink:href="#A" transform="matrix(1,0,0,1,457.9931640625,595.6878684885111) translate(0.005000000000002558 12.441406250000002)"/><use xlink:href="#B" transform="matrix(1,0,0,1,457.9931640625,595.6878684885111) translate(4.672426215277781 27.996961805555557)"/></g><defs><path fill="#333" d="M28-165h167v-1028H28v-164h505v164H362v1028h171V0H28v-165" id="C"/><use transform="matrix(0.009765624999999998,0,0,0.009765624999999998,0,0)" xlink:href="#C" id="a"/><path fill="#333" d="M371 0L31-970h174l239 678 141-402c-21-61-54-153-98-276h176l241 683 237-683h175C1197-634 1100-340 976 0H829L673-444c-35 99-88 247-157 444H371" id="D"/><path fill="#333" d="M838-484c0-173-151-342-322-342-177 0-319 167-319 342 0 176 146 340 319 340 171 0 322-167 322-340zm-807 0c0-265 224-507 485-507 260 0 487 246 487 507 0 260-229 505-487 505C255 21 31-224 31-484" id="E"/><path fill="#333" d="M470-144c172 0 264-158 264-340v-486h165V0H734v-96C656-18 568 21 470 21 202 21 46-186 46-463v-507h165v507c-4 167 99 319 259 319" id="F"/><path fill="#333" d="M125-1357h167V0H125v-1357" id="G"/><path fill="#333" d="M860-484c0-175-137-342-310-342-172 0-345 169-345 342s167 340 340 340c172 0 315-166 315-340zm-820 0c0-260 250-507 510-507 131 0 236 50 315 149v-515h167V0H865v-128C782-29 675 21 545 21 285 21 40-224 40-484" id="H"/><g id="b"><use transform="matrix(0.009765624999999998,0,0,0.009765624999999998,0,0)" xlink:href="#D"/><use transform="matrix(0.009765624999999998,0,0,0.009765624999999998,13.408203124999998,0)" xlink:href="#E"/><use transform="matrix(0.009765624999999998,0,0,0.009765624999999998,24.687499999999996,0)" xlink:href="#F"/><use transform="matrix(0.009765624999999998,0,0,0.009765624999999998,35.13671874999999,0)" xlink:href="#G"/><use transform="matrix(0.009765624999999998,0,0,0.009765624999999998,39.35546874999999,0)" xlink:href="#H"/></g><path fill="#333" d="M233-1172c-50 0-96-44-96-94 0-49 46-93 96-93s96 43 96 93c0 52-44 94-96 94zM26-970h289V0H150v-805H26v-165" id="I"/><path fill="#333" d="M218-698l409-308 109 126-324 249C497-490 624-280 795 0H598L276-530l-58 45V0H51v-1357h167v659" id="J"/><path fill="#333" d="M816-616c-46-109-154-210-294-210-133 0-258 109-301 210h595zM31-484c0-260 230-507 491-507 282 0 495 254 487 541H196c10 148 163 311 326 306 147-5 277-104 326-215l166 28C947-150 753 16 522 21 260 27 31-223 31-484" id="K"/><g id="c"><use transform="matrix(0.009765624999999998,0,0,0.009765624999999998,0,0)" xlink:href="#G"/><use transform="matrix(0.009765624999999998,0,0,0.009765624999999998,4.218749999999999,0)" xlink:href="#I"/><use transform="matrix(0.009765624999999998,0,0,0.009765624999999998,8.417968749999998,0)" xlink:href="#J"/><use transform="matrix(0.009765624999999998,0,0,0.009765624999999998,16.171874999999996,0)" xlink:href="#K"/></g><path fill="#333" d="M395 0C260 4 152-110 152-245v-560H6v-165c76 0 121-15 136-44 7-13 10-65 10-156h165v200h235v165H317v560c-9 115 138 72 235 80V0H395" id="L"/><g id="d"><use transform="matrix(0.009765624999999998,0,0,0.009765624999999998,0,0)" xlink:href="#L"/><use transform="matrix(0.009765624999999998,0,0,0.009765624999999998,6.269531249999999,0)" xlink:href="#E"/></g><path fill="#333" d="M429-1484c1 190-1 388 0 572 54-116 155-191 317-191 300 0 386 257 386 563 0 241-73 429-226 518-49 28-106 42-169 42-162 0-251-81-306-196h-4c-1 59-5 127-15 176H140c4-67 9-153 8-236v-1248h281zm66 648c-93 114-92 466 1 585 35 45 77 79 142 79 64 0 112-31 148-92 69-115 68-440-2-561-39-68-131-111-221-70-25 11-46 32-68 59" id="M"/><path fill="#333" d="M471 20c-247 0-336-169-336-415v-687h281v607c4 148 31 285 172 285 152 0 207-150 207-312v-580h281c4 359-9 736 8 1082H816c-7-63-11-146-12-215h-5C736-76 644 20 471 20" id="N"/><path fill="#333" d="M794-190h353V0H118v-190h395v-702H223v-190h571v892zM513-1277v-207h281v207H513" id="O"/><path fill="#333" d="M794-190h353V0H118v-190h395v-1104H223v-190h571v1294" id="P"/><path fill="#333" d="M802-909c-3-189-2-383-2-575h281v1248c-1 83 4 168 8 236H817c-9-50-14-117-15-176h-4C735-49 651 20 482 20 191 20 97-238 97-539c0-243 66-432 221-519 50-28 108-42 175-42 162 2 253 78 309 191zm-70 658c91-113 93-462 2-584-46-61-145-100-224-53-96 56-119 190-120 349 0 123 17 214 52 275 46 82 130 115 222 74 25-12 46-33 68-61" id="Q"/><path fill="#333" d="M89 20l821-1504h228L321 20H89" id="R"/><path fill="#333" d="M1113-274C1038-96 884 20 626 20c-352 0-526-209-526-566 0-358 185-556 530-556 358 0 496 251 499 615H395c5 180 68 319 245 319 102 0 186-45 208-129zM857-663c-6-177-128-307-315-247-94 30-141 121-145 247h460" id="S"/><path fill="#333" d="M774 0H438L31-1082h297c94 290 200 568 280 872 83-304 194-581 291-872h294" id="T"/><path fill="#333" d="M775-193C708-75 621 20 439 20 226 20 106-93 106-306c0-251 170-341 417-346l223-4c4-143-12-264-148-264-103 0-141 58-150 153l-293-14c37-219 194-321 455-321 263 0 418 130 417 390v392c1 84 5 161 89 160 21 0 42-2 62-6v152c-57 15-108 27-180 26-145 0-202-73-217-205h-6zm-256 17c168 0 234-139 227-325-166 4-347-25-347 173 0 94 33 152 120 152" id="U"/><path fill="#333" d="M711 13c-250 0-386-99-385-349l2-556H161v-190h181l88-282h176v282h385v190H606v530c-10 130 45 186 174 184 91-2 176-11 255-27v186C933-1 833 13 711 13" id="V"/><g id="e"><use transform="matrix(0.007595486111111112,0,0,0.007595486111111112,0,0)" xlink:href="#M"/><use transform="matrix(0.007595486111111112,0,0,0.007595486111111112,9.334852430555557,0)" xlink:href="#N"/><use transform="matrix(0.007595486111111112,0,0,0.007595486111111112,18.669704861111114,0)" xlink:href="#O"/><use transform="matrix(0.007595486111111112,0,0,0.007595486111111112,28.00455729166667,0)" xlink:href="#P"/><use transform="matrix(0.007595486111111112,0,0,0.007595486111111112,37.33940972222223,0)" xlink:href="#Q"/><use transform="matrix(0.007595486111111112,0,0,0.007595486111111112,46.674262152777786,0)" xlink:href="#R"/><use transform="matrix(0.007595486111111112,0,0,0.007595486111111112,56.00911458333334,0)" xlink:href="#S"/><use transform="matrix(0.007595486111111112,0,0,0.007595486111111112,65.3439670138889,0)" xlink:href="#T"/><use transform="matrix(0.007595486111111112,0,0,0.007595486111111112,74.67881944444446,0)" xlink:href="#U"/><use transform="matrix(0.007595486111111112,0,0,0.007595486111111112,84.01367187500001,0)" xlink:href="#P"/><use transform="matrix(0.007595486111111112,0,0,0.007595486111111112,93.34852430555557,0)" xlink:href="#N"/><use transform="matrix(0.007595486111111112,0,0,0.007595486111111112,102.68337673611113,0)" xlink:href="#U"/><use transform="matrix(0.007595486111111112,0,0,0.007595486111111112,112.01822916666669,0)" xlink:href="#V"/><use transform="matrix(0.007595486111111112,0,0,0.007595486111111112,121.35308159722224,0)" xlink:href="#S"/></g><path fill="#333" d="M462-1121v384h621v228H462V0H167v-1349h939v228H462" id="W"/><path fill="#333" d="M305-1169c27 366 9 780 14 1169H99v-1349h347c49 189 108 371 150 564 12 56 15 107 23 166 33-270 117-487 176-730h335V0H908c5-390-13-801 16-1169-52 285-130 541-199 809H507c-70-267-148-525-202-809" id="X"/><path fill="#333" d="M622-916c-112 2-200 14-200 111 0 90 89 101 168 121 234 58 514 77 514 368C1104-4 751 54 434 5 267-21 161-112 121-270l247-37c24 111 113 145 252 141 114-3 226-12 226-124 0-101-103-113-192-134-225-54-490-76-490-351 0-247 201-328 458-328 245 0 413 88 457 292l-249 26c-16-98-92-133-208-131" id="Y"/><g id="f"><use transform="matrix(0.007595486111111112,0,0,0.007595486111111112,0,0)" xlink:href="#W"/><use transform="matrix(0.007595486111111112,0,0,0.007595486111111112,9.334852430555557,0)" xlink:href="#W"/><use transform="matrix(0.007595486111111112,0,0,0.007595486111111112,18.669704861111114,0)" xlink:href="#X"/><use transform="matrix(0.007595486111111112,0,0,0.007595486111111112,28.00455729166667,0)" xlink:href="#Y"/></g><path fill="#333" d="M875-1102c70 0 148 7 206 17v237c-110-17-267-37-359 15-123 69-192 207-192 395V0H250c-10-367 32-789-52-1082h271c19 69 36 149 46 228h4c52-151 151-250 356-248" id="Z"/><path fill="#333" d="M768-1103c247 0 336 167 336 416V0H824v-619c-3-164-24-273-171-273-164 0-229 142-229 312V0H143c-4-359 9-736-8-1082h268c7 63 12 146 13 215h4c67-145 160-236 348-236" id="aa"/><g id="g"><use transform="matrix(0.007595486111111112,0,0,0.007595486111111112,0,0)" xlink:href="#P"/><use transform="matrix(0.007595486111111112,0,0,0.007595486111111112,9.334852430555557,0)" xlink:href="#S"/><use transform="matrix(0.007595486111111112,0,0,0.007595486111111112,18.669704861111114,0)" xlink:href="#U"/><use transform="matrix(0.007595486111111112,0,0,0.007595486111111112,28.00455729166667,0)" xlink:href="#Z"/><use transform="matrix(0.007595486111111112,0,0,0.007595486111111112,37.33940972222223,0)" xlink:href="#aa"/></g><path fill="#333" d="M934-1102c199 0 220 177 220 381V0H926c-2-260 10-533-4-785-4-72-14-138-83-138-34 0-61 27-81 81s-29 134-29 241V0H501c-2-260 9-533-5-785-4-72-13-138-82-138-46 0-65 47-80 93-21 67-30 155-30 248V0H75c-3-360 6-732-6-1082h209c6 50 3 123 8 175 36-100 83-195 216-195 135 0 166 79 196 196 42-105 93-196 236-196" id="ab"/><path fill="#333" d="M616-1102c361 0 521 202 521 560 0 354-171 562-527 562C259 20 92-192 92-542c0-351 169-560 524-560zm-9 930c200-2 236-165 236-370 0-199-27-367-223-367-195 0-233 146-233 367 0 129 18 223 55 282s92 88 165 88" id="ac"/><g id="h"><use transform="matrix(0.007595486111111112,0,0,0.007595486111111112,0,0)" xlink:href="#ab"/><use transform="matrix(0.007595486111111112,0,0,0.007595486111111112,9.334852430555557,0)" xlink:href="#ac"/><use transform="matrix(0.007595486111111112,0,0,0.007595486111111112,18.669704861111114,0)" xlink:href="#Z"/><use transform="matrix(0.007595486111111112,0,0,0.007595486111111112,28.00455729166667,0)" xlink:href="#S"/></g><path fill="#333" d="M484-144c91 0 275-43 275-120v-184c-54 18-283 13-339 27-84 21-172 73-172 157 0 80 79 120 236 120zm27-847c168 0 413 106 413 260v563c0 15 16 23 48 26-4 64-6 118-6 163-81-4-138-29-172-76-80 51-181 76-304 76C213 21 75-75 75-266c0-155 132-276 270-302-15-8 340-16 395-49 13-7 20-20 21-39-1 24-2 8-2-49 0-71-154-124-234-124-152 0-248 58-288 173L79-690c32-191 203-301 432-301" id="ad"/><path fill="#333" d="M878-484c0-170-176-342-346-342-173 0-309 165-309 342 0 174 142 340 314 340 171 0 341-169 341-340zm165 0c0 259-247 505-506 505-129 0-236-50-319-149V0H51v-1357h167v515c79-99 183-149 314-149 260 0 511 247 511 507" id="ae"/><path fill="#333" d="M300 0c-48 0-88-40-88-88s40-87 88-87c46 0 88 41 88 87 0 48-40 88-88 88zm79-416c0 23 2 103 2 124H215c0-33-1-97-1-137 4-234 58-352 200-430 52-29 138-54 138-132 0-132-61-198-182-198-123 0-185 72-185 217H17c-4-218 139-385 353-385 185 0 355 157 355 343 0 91-23 160-70 207-31 32-101 66-192 109-57 27-84 123-84 282" id="af"/><g id="i"><use transform="matrix(0.009765624999999998,0,0,0.009765624999999998,0,0)" xlink:href="#ad"/><use transform="matrix(0.009765624999999998,0,0,0.009765624999999998,10.703124999999998,0)" xlink:href="#ae"/><use transform="matrix(0.009765624999999998,0,0,0.009765624999999998,22.109374999999996,0)" xlink:href="#E"/><use transform="matrix(0.009765624999999998,0,0,0.009765624999999998,33.38867187499999,0)" xlink:href="#F"/><use transform="matrix(0.009765624999999998,0,0,0.009765624999999998,43.83789062499999,0)" xlink:href="#L"/><use transform="matrix(0.009765624999999998,0,0,0.009765624999999998,50.10742187499999,0)" xlink:href="#af"/></g><path fill="#333" d="M424-1484c-2 206 5 424-8 618h4c67-145 160-234 348-236 251-3 335 167 336 416V0H824v-621c0-150-23-276-173-270-163 7-227 142-227 312V0H143v-1484h281" id="ag"/><path fill="#333" d="M143 212c82 12 185 12 233-31 50-45 83-117 110-192L38-1082h297c100 284 211 557 291 861 72-305 176-578 270-861h294L742 57c-80 192-156 368-417 368-60 0-131-4-182-13V212" id="ah"/><g id="j"><use transform="matrix(0.007595486111111112,0,0,0.007595486111111112,0,0)" xlink:href="#V"/><use transform="matrix(0.007595486111111112,0,0,0.007595486111111112,9.334852430555557,0)" xlink:href="#ag"/><use transform="matrix(0.007595486111111112,0,0,0.007595486111111112,18.669704861111114,0)" xlink:href="#S"/><use transform="matrix(0.007595486111111112,0,0,0.007595486111111112,28.00455729166667,0)" xlink:href="#ac"/><use transform="matrix(0.007595486111111112,0,0,0.007595486111111112,37.33940972222223,0)" xlink:href="#Z"/><use transform="matrix(0.007595486111111112,0,0,0.007595486111111112,46.674262152777786,0)" xlink:href="#ah"/></g><path fill="#333" d="M427-171c3 195 2 397 2 596H148V-846c1-83-4-168-8-236h272c10 49 14 118 15 176h4c59-114 151-197 316-197 291 0 385 259 385 560 0 243-65 433-220 521-50 28-109 42-176 42-162-2-253-78-309-191zm69-661c-91 113-92 463-1 586 46 62 145 101 225 54 96-57 118-191 119-351 0-123-18-215-53-276-46-82-128-115-220-74-25 12-48 33-70 61" id="ai"/><g id="k"><use transform="matrix(0.007595486111111112,0,0,0.007595486111111112,0,0)" xlink:href="#O"/><use transform="matrix(0.007595486111111112,0,0,0.007595486111111112,9.334852430555557,0)" xlink:href="#ab"/><use transform="matrix(0.007595486111111112,0,0,0.007595486111111112,18.669704861111114,0)" xlink:href="#ai"/><use transform="matrix(0.007595486111111112,0,0,0.007595486111111112,28.00455729166667,0)" xlink:href="#P"/><use transform="matrix(0.007595486111111112,0,0,0.007595486111111112,37.33940972222223,0)" xlink:href="#S"/><use transform="matrix(0.007595486111111112,0,0,0.007595486111111112,46.674262152777786,0)" xlink:href="#ab"/><use transform="matrix(0.007595486111111112,0,0,0.007595486111111112,56.00911458333334,0)" xlink:href="#S"/><use transform="matrix(0.007595486111111112,0,0,0.007595486111111112,65.3439670138889,0)" xlink:href="#aa"/><use transform="matrix(0.007595486111111112,0,0,0.007595486111111112,74.67881944444446,0)" xlink:href="#V"/><use transform="matrix(0.007595486111111112,0,0,0.007595486111111112,84.01367187500001,0)" xlink:href="#U"/><use transform="matrix(0.007595486111111112,0,0,0.007595486111111112,93.34852430555557,0)" xlink:href="#V"/><use transform="matrix(0.007595486111111112,0,0,0.007595486111111112,102.68337673611113,0)" xlink:href="#O"/><use transform="matrix(0.007595486111111112,0,0,0.007595486111111112,112.01822916666669,0)" xlink:href="#ac"/><use transform="matrix(0.007595486111111112,0,0,0.007595486111111112,121.35308159722224,0)" xlink:href="#aa"/></g><path fill="#333" d="M966-625c20-2 56 36 56 56V0H893v-141C803-32 685 22 540 22 268 22 57-229 57-506v-345c-8-277 211-528 483-528s491 251 483 528H893c5-220-139-398-353-398-205 0-353 174-353 382v377c-5 208 148 382 353 382 208 0 359-175 354-388H606c-1-25-2-91 0-129h360" id="aj"/><path fill="#333" d="M881-477c0-189-160-372-351-372-189 0-348 181-348 372s160 369 348 369 351-180 351-369zm-829-1c0-256 220-501 478-501 257 0 481 246 481 502S785 22 530 22C276 22 52-223 52-478" id="ak"/><g id="l"><use transform="matrix(0.008680555555555554,0,0,0.008680555555555554,0,0)" xlink:href="#aj"/><use transform="matrix(0.008680555555555554,0,0,0.008680555555555554,9.887152777777777,0)" xlink:href="#ak"/></g><path fill="#333" d="M406 0C279 4 176-105 176-232v-595H26v-130c75 0 120-17 137-51 9-17 13-69 13-155h130v206h241v130H306v595c0 70 49 105 146 105 18 0 78-3 95-3V0H406" id="al"/><g id="m"><use transform="matrix(0.008680555555555554,0,0,0.008680555555555554,0,0)" xlink:href="#al"/><use transform="matrix(0.008680555555555554,0,0,0.008680555555555554,5.312499999999999,0)" xlink:href="#ak"/></g><path fill="#333" d="M-2-478c0-256 249-501 505-501 147 0 261 65 343 196v-572h132V0H846v-174C761-43 645 22 498 22 243 22-2-223-2-478zm843 0c0-191-151-371-338-371S128-665 128-478s183 370 370 370c188 0 343-180 343-370" id="am"/><path fill="#333" d="M240-1205c-40 0-79-36-79-76s39-76 79-76c41 0 78 35 78 76s-37 76-78 76zM47-957h257V0H174v-827H47v-130" id="an"/><path fill="#333" d="M550-827c-191 0-346 159-346 349V0H72v-957h132v174c85-116 198-174 339-174h204v174c-69-29-134-44-197-44" id="ao"/><path fill="#333" d="M52-478c0-256 228-501 485-501 264 0 489 248 480 516H180c0 180 174 355 357 355 148 0 301-110 347-219l130 23C955-140 749 17 537 22 280 28 52-222 52-478zm815-115c-38-129-172-257-330-256-158 0-295 130-340 256h670" id="ap"/><path fill="#333" d="M51-478c0-256 221-509 478-501 201 6 353 126 426 274H803c-71-96-163-144-274-144-189 0-348 180-348 372 0 191 160 369 348 369 100 0 189-44 266-132h155C852-65 712 22 529 22 275 22 51-223 51-478" id="aq"/><path fill="#333" d="M253 269c88 1 142-24 163-75L519-65 33-957h148l400 735 292-735h140L555 194c-58 142-154 210-302 205V269" id="ar"/><g id="n"><use transform="matrix(0.008680555555555554,0,0,0.008680555555555554,0,0)" xlink:href="#am"/><use transform="matrix(0.008680555555555554,0,0,0.008680555555555554,9.661458333333332,0)" xlink:href="#an"/><use transform="matrix(0.008680555555555554,0,0,0.008680555555555554,13.133680555555554,0)" xlink:href="#ao"/><use transform="matrix(0.008680555555555554,0,0,0.008680555555555554,19.878472222222218,0)" xlink:href="#ap"/><use transform="matrix(0.008680555555555554,0,0,0.008680555555555554,29.644097222222214,0)" xlink:href="#aq"/><use transform="matrix(0.008680555555555554,0,0,0.008680555555555554,39.053819444444436,0)" xlink:href="#al"/><use transform="matrix(0.008680555555555554,0,0,0.008680555555555554,44.366319444444436,0)" xlink:href="#ak"/><use transform="matrix(0.008680555555555554,0,0,0.008680555555555554,54.131944444444436,0)" xlink:href="#ao"/><use transform="matrix(0.008680555555555554,0,0,0.008680555555555554,61.57118055555554,0)" xlink:href="#ar"/><path fill="#333" d="M70.27.65h1.78v.43h-1.78z"/></g><path fill="#333" d="M-.9 3.78H.9v.73H-.9z" id="o"/><path fill="#333" d="M1109-360C1066-122 902 20 624 20c-347 0-514-209-514-555 0-353 168-567 518-567 270 0 425 136 473 361l-283 14c-16-106-75-183-196-182-75 0-130 31-165 93s-52 152-52 270c0 249 74 374 221 374 120 0 188-82 201-201" id="as"/><g id="p"><use transform="matrix(0.008680555555555554,0,0,0.008680555555555554,0,0)" xlink:href="#R"/><use transform="matrix(0.008680555555555554,0,0,0.008680555555555554,10.668402777777777,0)" xlink:href="#S"/><use transform="matrix(0.008680555555555554,0,0,0.008680555555555554,21.336805555555554,0)" xlink:href="#Q"/><use transform="matrix(0.008680555555555554,0,0,0.008680555555555554,32.00520833333333,0)" xlink:href="#N"/><use transform="matrix(0.008680555555555554,0,0,0.008680555555555554,42.67361111111111,0)" xlink:href="#as"/><use transform="matrix(0.008680555555555554,0,0,0.008680555555555554,53.342013888888886,0)" xlink:href="#U"/><use transform="matrix(0.008680555555555554,0,0,0.008680555555555554,64.01041666666666,0)" xlink:href="#V"/><use transform="matrix(0.008680555555555554,0,0,0.008680555555555554,74.67881944444443,0)" xlink:href="#O"/><use transform="matrix(0.008680555555555554,0,0,0.008680555555555554,85.3472222222222,0)" xlink:href="#ac"/><use transform="matrix(0.008680555555555554,0,0,0.008680555555555554,96.01562499999997,0)" xlink:href="#aa"/></g><g id="q"><use transform="matrix(0.008680555555555554,0,0,0.008680555555555554,0,0)" xlink:href="#am"/><use transform="matrix(0.008680555555555554,0,0,0.008680555555555554,9.661458333333332,0)" xlink:href="#an"/><use transform="matrix(0.008680555555555554,0,0,0.008680555555555554,13.133680555555554,0)" xlink:href="#ao"/><use transform="matrix(0.008680555555555554,0,0,0.008680555555555554,19.878472222222218,0)" xlink:href="#ap"/><use transform="matrix(0.008680555555555554,0,0,0.008680555555555554,29.644097222222214,0)" xlink:href="#aq"/><use transform="matrix(0.008680555555555554,0,0,0.008680555555555554,39.053819444444436,0)" xlink:href="#al"/><use transform="matrix(0.008680555555555554,0,0,0.008680555555555554,44.366319444444436,0)" xlink:href="#ak"/><use transform="matrix(0.008680555555555554,0,0,0.008680555555555554,54.131944444444436,0)" xlink:href="#ao"/><use transform="matrix(0.008680555555555554,0,0,0.008680555555555554,61.57118055555554,0)" xlink:href="#ar"/></g><path fill="#333" d="M844-1321c-130 0-195 53-191 182v57h443v190H653V0H373v-892H117v-190h256v-83c5-247 162-348 422-349 120-1 232 13 327 28v184c-84-10-183-19-278-19" id="at"/><path fill="#333" d="M1028 0H784c-56-191-119-378-170-573C562-377 495-191 437 0H194L11-1082h228c32 239 67 472 95 714 4 40 7 80 7 119 53-195 119-378 177-568h193c56 190 120 371 169 568-1-79 11-158 21-226l91-607h226" id="au"/><g id="s"><use transform="matrix(0.008680555555555554,0,0,0.008680555555555554,0,0)" xlink:href="#R"/><use transform="matrix(0.008680555555555554,0,0,0.008680555555555554,10.668402777777777,0)" xlink:href="#Y"/><use transform="matrix(0.008680555555555554,0,0,0.008680555555555554,21.336805555555554,0)" xlink:href="#ac"/><use transform="matrix(0.008680555555555554,0,0,0.008680555555555554,32.00520833333333,0)" xlink:href="#at"/><use transform="matrix(0.008680555555555554,0,0,0.008680555555555554,42.67361111111111,0)" xlink:href="#V"/><use transform="matrix(0.008680555555555554,0,0,0.008680555555555554,53.342013888888886,0)" xlink:href="#au"/><use transform="matrix(0.008680555555555554,0,0,0.008680555555555554,64.01041666666666,0)" xlink:href="#U"/><use transform="matrix(0.008680555555555554,0,0,0.008680555555555554,74.67881944444443,0)" xlink:href="#Z"/><use transform="matrix(0.008680555555555554,0,0,0.008680555555555554,85.3472222222222,0)" xlink:href="#S"/><use transform="matrix(0.008680555555555554,0,0,0.008680555555555554,96.01562499999997,0)" xlink:href="#R"/><use transform="matrix(0.008680555555555554,0,0,0.008680555555555554,106.68402777777774,0)" xlink:href="#O"/><use transform="matrix(0.008680555555555554,0,0,0.008680555555555554,117.35243055555551,0)" xlink:href="#P"/><use transform="matrix(0.008680555555555554,0,0,0.008680555555555554,128.0208333333333,0)" xlink:href="#P"/><use transform="matrix(0.008680555555555554,0,0,0.008680555555555554,138.68923611111106,0)" xlink:href="#N"/><use transform="matrix(0.008680555555555554,0,0,0.008680555555555554,149.35763888888883,0)" xlink:href="#Y"/><use transform="matrix(0.008680555555555554,0,0,0.008680555555555554,160.0260416666666,0)" xlink:href="#V"/><use transform="matrix(0.008680555555555554,0,0,0.008680555555555554,170.6944444444444,0)" xlink:href="#Z"/><use transform="matrix(0.008680555555555554,0,0,0.008680555555555554,181.36284722222214,0)" xlink:href="#U"/><use transform="matrix(0.008680555555555554,0,0,0.008680555555555554,192.03124999999991,0)" xlink:href="#V"/><use transform="matrix(0.008680555555555554,0,0,0.008680555555555554,202.6996527777777,0)" xlink:href="#O"/><use transform="matrix(0.008680555555555554,0,0,0.008680555555555554,213.36805555555546,0)" xlink:href="#T"/><use transform="matrix(0.008680555555555554,0,0,0.008680555555555554,224.03645833333323,0)" xlink:href="#S"/></g><g id="t"><use transform="matrix(0.008680555555555554,0,0,0.008680555555555554,0,0)" xlink:href="#am"/><use transform="matrix(0.008680555555555554,0,0,0.008680555555555554,9.661458333333332,0)" xlink:href="#an"/><use transform="matrix(0.008680555555555554,0,0,0.008680555555555554,13.133680555555554,0)" xlink:href="#ao"/><use transform="matrix(0.008680555555555554,0,0,0.008680555555555554,19.878472222222218,0)" xlink:href="#ap"/><use transform="matrix(0.008680555555555554,0,0,0.008680555555555554,29.644097222222214,0)" xlink:href="#aq"/><use transform="matrix(0.008680555555555554,0,0,0.008680555555555554,39.053819444444436,0)" xlink:href="#al"/><use transform="matrix(0.008680555555555554,0,0,0.008680555555555554,44.366319444444436,0)" xlink:href="#ak"/><use transform="matrix(0.008680555555555554,0,0,0.008680555555555554,54.131944444444436,0)" xlink:href="#ao"/><use transform="matrix(0.008680555555555554,0,0,0.008680555555555554,61.57118055555554,0)" xlink:href="#ar"/></g><g id="v"><use transform="matrix(0.008680555555555554,0,0,0.008680555555555554,0,0)" xlink:href="#R"/><use transform="matrix(0.008680555555555554,0,0,0.008680555555555554,10.668402777777777,0)" xlink:href="#Y"/><use transform="matrix(0.008680555555555554,0,0,0.008680555555555554,21.336805555555554,0)" xlink:href="#ac"/><use transform="matrix(0.008680555555555554,0,0,0.008680555555555554,32.00520833333333,0)" xlink:href="#at"/><use transform="matrix(0.008680555555555554,0,0,0.008680555555555554,42.67361111111111,0)" xlink:href="#V"/><use transform="matrix(0.008680555555555554,0,0,0.008680555555555554,53.342013888888886,0)" xlink:href="#au"/><use transform="matrix(0.008680555555555554,0,0,0.008680555555555554,64.01041666666666,0)" xlink:href="#U"/><use transform="matrix(0.008680555555555554,0,0,0.008680555555555554,74.67881944444443,0)" xlink:href="#Z"/><use transform="matrix(0.008680555555555554,0,0,0.008680555555555554,85.3472222222222,0)" xlink:href="#S"/><use transform="matrix(0.008680555555555554,0,0,0.008680555555555554,96.01562499999997,0)" xlink:href="#R"/><use transform="matrix(0.008680555555555554,0,0,0.008680555555555554,106.68402777777774,0)" xlink:href="#N"/><use transform="matrix(0.008680555555555554,0,0,0.008680555555555554,117.35243055555551,0)" xlink:href="#V"/><use transform="matrix(0.008680555555555554,0,0,0.008680555555555554,128.0208333333333,0)" xlink:href="#O"/><use transform="matrix(0.008680555555555554,0,0,0.008680555555555554,138.68923611111106,0)" xlink:href="#P"/><use transform="matrix(0.008680555555555554,0,0,0.008680555555555554,149.35763888888883,0)" xlink:href="#O"/><use transform="matrix(0.008680555555555554,0,0,0.008680555555555554,160.0260416666666,0)" xlink:href="#V"/><use transform="matrix(0.008680555555555554,0,0,0.008680555555555554,170.6944444444444,0)" xlink:href="#O"/><use transform="matrix(0.008680555555555554,0,0,0.008680555555555554,181.36284722222214,0)" xlink:href="#S"/><use transform="matrix(0.008680555555555554,0,0,0.008680555555555554,192.03124999999991,0)" xlink:href="#Y"/></g><path fill="#333" d="M187-970l311 757c69-168 171-420 308-757h181L592 0H399L3-970h184" id="av"/><g id="w"><use transform="matrix(0.010850694444444444,0,0,0.010850694444444444,0,0)" xlink:href="#av"/><use transform="matrix(0.010850694444444444,0,0,0.010850694444444444,12.055121527777777,0)" xlink:href="#I"/><use transform="matrix(0.010850694444444444,0,0,0.010850694444444444,16.720920138888886,0)" xlink:href="#ad"/><use transform="matrix(0.010850694444444444,0,0,0.010850694444444444,28.613281249999993,0)" xlink:href="#af"/></g><path fill="#333" d="M616-1349c316 3 526 118 526 426 0 301-201 442-514 447H431V0H136v-1349h480zm-25 646c164 1 254-62 254-215 0-157-99-200-262-202H431v417h160" id="aw"/><g id="x"><use transform="matrix(0.007595486111111112,0,0,0.007595486111111112,0,0)" xlink:href="#aw"/><use transform="matrix(0.007595486111111112,0,0,0.007595486111111112,9.334852430555557,0)" xlink:href="#Z"/><use transform="matrix(0.007595486111111112,0,0,0.007595486111111112,18.669704861111114,0)" xlink:href="#ac"/><use transform="matrix(0.007595486111111112,0,0,0.007595486111111112,28.00455729166667,0)" xlink:href="#as"/><use transform="matrix(0.007595486111111112,0,0,0.007595486111111112,37.33940972222223,0)" xlink:href="#S"/><use transform="matrix(0.007595486111111112,0,0,0.007595486111111112,46.674262152777786,0)" xlink:href="#Q"/><use transform="matrix(0.007595486111111112,0,0,0.007595486111111112,56.00911458333334,0)" xlink:href="#N"/><use transform="matrix(0.007595486111111112,0,0,0.007595486111111112,65.3439670138889,0)" xlink:href="#Z"/><use transform="matrix(0.007595486111111112,0,0,0.007595486111111112,74.67881944444446,0)" xlink:href="#U"/><use transform="matrix(0.007595486111111112,0,0,0.007595486111111112,84.01367187500001,0)" xlink:href="#P"/><use transform="matrix(0.007595486111111112,0,0,0.007595486111111112,93.34852430555557,0)" xlink:href="#R"/></g><g id="y"><use transform="matrix(0.007595486111111112,0,0,0.007595486111111112,0,0)" xlink:href="#O"/><use transform="matrix(0.007595486111111112,0,0,0.007595486111111112,9.334852430555557,0)" xlink:href="#aa"/><use transform="matrix(0.007595486111111112,0,0,0.007595486111111112,18.669704861111114,0)" xlink:href="#V"/><use transform="matrix(0.007595486111111112,0,0,0.007595486111111112,28.00455729166667,0)" xlink:href="#S"/><use transform="matrix(0.007595486111111112,0,0,0.007595486111111112,37.33940972222223,0)" xlink:href="#Z"/><use transform="matrix(0.007595486111111112,0,0,0.007595486111111112,46.674262152777786,0)" xlink:href="#U"/><use transform="matrix(0.007595486111111112,0,0,0.007595486111111112,56.00911458333334,0)" xlink:href="#as"/><use transform="matrix(0.007595486111111112,0,0,0.007595486111111112,65.3439670138889,0)" xlink:href="#V"/><use transform="matrix(0.007595486111111112,0,0,0.007595486111111112,74.67881944444446,0)" xlink:href="#O"/><use transform="matrix(0.007595486111111112,0,0,0.007595486111111112,84.01367187500001,0)" xlink:href="#T"/><use transform="matrix(0.007595486111111112,0,0,0.007595486111111112,93.34852430555557,0)" xlink:href="#S"/></g><g id="z"><use transform="matrix(0.007595486111111112,0,0,0.007595486111111112,0,0)" xlink:href="#U"/><use transform="matrix(0.007595486111111112,0,0,0.007595486111111112,9.334852430555557,0)" xlink:href="#ai"/><use transform="matrix(0.007595486111111112,0,0,0.007595486111111112,18.669704861111114,0)" xlink:href="#ai"/><use transform="matrix(0.007595486111111112,0,0,0.007595486111111112,28.00455729166667,0)" xlink:href="#Z"/><use transform="matrix(0.007595486111111112,0,0,0.007595486111111112,37.33940972222223,0)" xlink:href="#ac"/><use transform="matrix(0.007595486111111112,0,0,0.007595486111111112,46.674262152777786,0)" xlink:href="#U"/><use transform="matrix(0.007595486111111112,0,0,0.007595486111111112,56.00911458333334,0)" xlink:href="#as"/><use transform="matrix(0.007595486111111112,0,0,0.007595486111111112,65.3439670138889,0)" xlink:href="#ag"/></g><path fill="#333" d="M796 0v-574H433V0H138v-1349h295v531h363v-531h295V0H796" id="ax"/><path fill="#333" d="M324-409v-244h580v244H324" id="ay"/><g id="A"><use transform="matrix(0.007595486111111112,0,0,0.007595486111111112,0,0)" xlink:href="#ax"/><use transform="matrix(0.007595486111111112,0,0,0.007595486111111112,9.334852430555557,0)" xlink:href="#U"/><use transform="matrix(0.007595486111111112,0,0,0.007595486111111112,18.669704861111114,0)" xlink:href="#aa"/><use transform="matrix(0.007595486111111112,0,0,0.007595486111111112,28.00455729166667,0)" xlink:href="#Q"/><use transform="matrix(0.007595486111111112,0,0,0.007595486111111112,37.33940972222223,0)" xlink:href="#Y"/><use transform="matrix(0.007595486111111112,0,0,0.007595486111111112,46.674262152777786,0)" xlink:href="#ay"/><use transform="matrix(0.007595486111111112,0,0,0.007595486111111112,56.00911458333334,0)" xlink:href="#ac"/><use transform="matrix(0.007595486111111112,0,0,0.007595486111111112,65.3439670138889,0)" xlink:href="#at"/><use transform="matrix(0.007595486111111112,0,0,0.007595486111111112,74.67881944444446,0)" xlink:href="#at"/></g><g id="B"><use transform="matrix(0.007595486111111112,0,0,0.007595486111111112,0,0)" xlink:href="#U"/><use transform="matrix(0.007595486111111112,0,0,0.007595486111111112,9.334852430555557,0)" xlink:href="#ai"/><use transform="matrix(0.007595486111111112,0,0,0.007595486111111112,18.669704861111114,0)" xlink:href="#ai"/><use transform="matrix(0.007595486111111112,0,0,0.007595486111111112,28.00455729166667,0)" xlink:href="#Z"/><use transform="matrix(0.007595486111111112,0,0,0.007595486111111112,37.33940972222223,0)" xlink:href="#ac"/><use transform="matrix(0.007595486111111112,0,0,0.007595486111111112,46.674262152777786,0)" xlink:href="#U"/><use transform="matrix(0.007595486111111112,0,0,0.007595486111111112,56.00911458333334,0)" xlink:href="#as"/><use transform="matrix(0.007595486111111112,0,0,0.007595486111111112,65.3439670138889,0)" xlink:href="#ag"/></g></defs></g></svg>